<svg width="467" height="635" viewBox="0 0 467 635" fill="none" xmlns="http://www.w3.org/2000/svg">
<rect y="221" width="53" height="4" fill="#3DAA16"/>
<rect x="80" y="104" width="53" height="111" fill="#3DAA16"/>
<line x1="28.5" y1="223" x2="28.5" y2="358" stroke="#3DAA16" stroke-width="3"/>
<line x1="107.5" y1="104" x2="107.5" y2="240" stroke="#3DAA16" stroke-width="3"/>
<line x1="107.5" y1="72" x2="107.5" y2="208" stroke="#3DAA16" stroke-width="3"/>
<rect x="329" y="53" width="53" height="97" fill="#CE3621"/>
<line x1="356.5" y1="118" x2="356.5" y2="183" stroke="#CE3621" stroke-width="3"/>
<line x1="356.5" y1="18" x2="356.5" y2="171" stroke="#CE3621" stroke-width="3"/>
<rect x="414" y="130" width="53" height="484" fill="#CE3621"/>
<line x1="441.5" y1="195" x2="441.5" y2="635" stroke="#CE3621" stroke-width="3"/>
<line x1="441.5" y1="95" x2="441.5" y2="248" stroke="#CE3621" stroke-width="3"/>
<line x1="192.5" y1="50" x2="192.5" y2="150" stroke="#3DAA16" stroke-width="3"/>
<rect x="165" y="60" width="53" height="80" fill="#3DAA16"/>
<line x1="274.5" x2="274.5" y2="35" stroke="#3DAA16" stroke-width="3"/>
<rect x="247" y="10" width="53" height="15" fill="#3DAA16"/>
</svg>
